<svg xmlns="http://www.w3.org/2000/svg" viewBox="0 0 318.5 519"><defs><style>.cls-1,.cls-2{fill:none;}.cls-2{stroke:#fafafa;stroke-miterlimit:10;}</style></defs><title>Movil</title><g id="tope"><line class="cls-1" x1="288" y1="202" x2="288" y2="519"/><line class="cls-1" x1="148.1" y1="31.5" x2="148.1"/><line class="cls-1" x1="137.5" y1="88.95" y2="88.95"/></g><g id="brazo-izq"><path class="cls-2" d="M185,135.5H145c-4.12-.87-6.47-3.11-7-6.76V39c1-10.61,20-10.61,21,0V113.3h13v6.75c.5,2.9,3,8.87,6,11.59A23.73,23.73,0,0,0,185,135.5Z" transform="translate(-0.5 -0.5)"/></g><g id="ojo-izq"><rect class="cls-2" x="184" y="74" width="48" height="50" rx="8"/><path class="cls-2" d="M235.5,102.5c.32,5.23,2.62,7.9,8,8v9c0,11-12.57,17-16.43,17H189.4c-9.2,0-17.76-10.26-17.4-18v-38c1.93-10.37,7.85-16.89,18.36-19h35.76C236.86,64.15,242.44,70.66,244,80V93.5C237.69,94.05,235.5,98.5,235.5,102.5Z" transform="translate(-0.5 -0.5)"/></g><g id="ojo-der"><rect class="cls-2" x="256" y="74" width="49" height="50" rx="8"/><path class="cls-2" d="M253.5,102.5c0,5-3,8-9,8v9c0,11,13,17,17,17h39c9-1,18-11,18-18v-38c-2-10.37-8.13-16.89-19-19h-37C251.39,64.15,245.61,70.66,244,80V93.5C250.53,94.05,253.37,97.29,253.5,102.5Z" transform="translate(-0.5 -0.5)"/></g><g id="brazo-der"><path class="cls-2" d="M315.5,126.5v44a25.5,25.5,0,0,1-5,16c-3.79,5.72-9.76,11-17,16a22.2,22.2,0,0,1-9,1c-6-2-9-12-3-17,7.25-4.94,12.05-10.68,12-18v-32h8A24.46,24.46,0,0,0,315.5,126.5Z" transform="translate(-0.5 -0.5)"/></g><g id="centro-ojos"><circle class="cls-2" cx="207" cy="107" r="10"/><circle class="cls-2" cx="282" cy="107" r="10"/></g></svg>